# xmcd
#
# Track frame offsets: 
#        182
#        12807
#        25157
#        36760
#        48125
#        61325
#        73017
#        84735
#        95190
#        108075
#        118232
#        127887
#        141455
#        154592
#        164285
#        176520
#        189175
#        199130
#
# Disc length: 2836 seconds
#
# Revision: 4
# Processed by: cddbd v1.5.2PL0 Copyright (c) Steve Scherf et al.
# Submitted via: ExactAudioCopyFreeDBPlugin 1.0
#
DISCID=ef0b1212
DTITLE=Jimmy McCracklin - San Francisco Blues 
DYEAR=1900
DGENRE=Blues
TTITLE0=The Walk
TTITLE1=I`m To Blame
TTITLE2=Minnie Lee
TTITLE3=Take Care Of Yourself
TTITLE4=Suffer
TTITLE5=Get Tough
TTITLE6=Later On
TTITLE7=Everybody Rock
TTITLE8=Come On
TTITLE9=I Know
TTITLE10=Country Baby
TTITLE11=He Knows The Rules
TTITLE12=The Wobble
TTITLE13=I`m Through
TTITLE14=Hurt Me
TTITLE15=I`ll Take The Blame
TTITLE16=One Track Love
TTITLE17=Trottin`
EXTD=Blues Collection #66 ID3G: 0
EXTT0=
EXTT1=
EXTT2=
EXTT3=
EXTT4=
EXTT5=
EXTT6=
EXTT7=
EXTT8=
EXTT9=
EXTT10=
EXTT11=
EXTT12=
EXTT13=
EXTT14=
EXTT15=
EXTT16=
EXTT17=
PLAYORDER=
